<svg id="Capa_1" enable-background="new 0 0 512 512" height="512" viewBox="0 0 512 512" width="512" xmlns="http://www.w3.org/2000/svg"><g><g><path clip-rule="evenodd" d="m370.101 276.363c8.81-21.94 23.36-41.976 31.573-61.699-3.24-35.837-18.586-70.139-56.582-88.925-24.582 33.393-35.779 63.034-51.807 132.321v54.31l37.598 19.553 31.545-19.553.284-.483c-.142-12.476 2.871-24.27 7.389-35.524z" fill="#c6d0da" fill-rule="evenodd"/></g><g><path clip-rule="evenodd" d="m134.624 473.821c14.891-51.098 56.695-138.971 3.865-197.515-37.058 0-74.201 34.899-84.404 89.038l-16.625 88.413z" fill="#918291" fill-rule="evenodd"/></g><g><path clip-rule="evenodd" d="m211.269 312.37c28.419-61.045-18.302-139.17-40.696-196.151-38.99 19.752-52.774 66.104-55.246 103.418 6.65 18.103 16.824 36.604 23.161 56.668 3.581 11.283 5.94 23.077 5.797 35.581v.483l29.982 13.954z" fill="#c6d0da" fill-rule="evenodd"/></g><g><path clip-rule="evenodd" d="m470.306 453.757-16.653-88.413c-10.174-54.139-46.493-88.981-83.551-88.981-48.312 13.329-35.154 128.882 9.861 177.394l49.875 11.624z" fill="#918291" fill-rule="evenodd"/></g><g><path clip-rule="evenodd" d="m401.674 214.664c-2.302-25.578-10.771-50.359-29.243-69.287-7.417-7.616-16.454-24.299-27.339-29.67v15.375c21.598 19.382 31.232 56.043 33.733 83.582-8.241 19.723-22.792 39.759-31.573 61.699-4.547 11.254-7.559 23.048-7.417 35.524l-.284.483h22.877l.284-.483c-.142-12.476 2.87-24.27 7.389-35.524 8.81-21.94 23.36-41.976 31.573-61.699z" fill="#a0aab7" fill-rule="evenodd"/></g><g><path clip-rule="evenodd" d="m303.317 312.37v-54.31c-30.948-15.119-58.827-13.073-92.048-.114v54.423l42.827 12.021z" fill="#fed1a3" fill-rule="evenodd"/></g><g><path clip-rule="evenodd" d="m453.652 365.344c-10.174-54.139-46.493-88.981-83.551-88.981-1.932 4.831-3.609 9.776-4.86 14.835 24.724.711 43.339 14.323 54.962 40.725 10.487 23.787 23.303 92.534 30.834 121.834h19.268z" fill="#685d68" fill-rule="evenodd"/></g><g><path clip-rule="evenodd" d="m379.962 453.757 10.629-129.11c.54-6.735-5.428-12.277-12.05-12.277h-16.113-59.111-92.048-66.983-8.241c-6.622 0-12.589 5.542-12.021 12.277l10.6 129.11 118.733 20.064z" fill="#faf8f9" fill-rule="evenodd"/></g><g><path clip-rule="evenodd" d="m257.307 409.11c17.705 0 32.056-11.652 32.056-26.032s-14.351-26.061-32.056-26.061-32.056 11.68-32.056 26.061c0 14.38 14.351 26.032 32.056 26.032z" fill="#e7a561" fill-rule="evenodd"/></g><g><path clip-rule="evenodd" d="m379.962 453.757 10.629-129.11c.54-6.735-5.428-12.277-12.05-12.277h-16.113-16.994c6.622 0 12.589 5.542 12.021 12.277l-10.6 129.11z" fill="#e5e1e5" fill-rule="evenodd"/></g><g><path clip-rule="evenodd" d="m289.364 383.078c0-14.38-14.351-26.061-32.056-26.061-3.893 0-7.588.568-11.026 1.591 12.589 3.496 21.655 13.215 21.655 24.64 0 11.226-8.781 20.803-21.058 24.441 3.268.909 6.764 1.421 10.43 1.421 17.703 0 32.055-11.652 32.055-26.032z" fill="#e28424" fill-rule="evenodd"/></g><g><path clip-rule="evenodd" d="m257.307 276.704c-6.366-.313-12.845-1.79-20.092-4.405-9.236-3.353-17.989-8.298-25.946-14.352v24.554c10.032 8.327 34.927 14.579 53.655 10.203 7.389-2.671 14.494-3.609 21.144-6.991 5.684-2.899 4.803-.028 4.803 7.616v19.041h12.447v-54.31c-7.986 5.997-16.767 10.913-25.946 14.238-7.248 2.615-13.699 4.093-20.065 4.406z" fill="#f5a96c" fill-rule="evenodd"/></g><g><path clip-rule="evenodd" d="m407.87 187.069c-1.62-102.453-85.143-179.498-149.54-179.498s-147.919 77.045-149.539 179.498c-.171 10.885 2.558 21.656 6.536 32.569 2.472-37.315 16.256-73.635 55.246-93.415.313-.142.654-.313.966-.483 32.369-16 59.765-22.48 86.791-22.48 26.998 0 54.422 6.48 86.762 22.48 37.996 18.785 53.342 53.088 56.582 88.925 3.865-9.209 6.338-18.36 6.196-27.596z" fill="#918291" fill-rule="evenodd"/></g><g><path clip-rule="evenodd" d="m407.87 187.069c-1.62-102.453-85.143-179.498-149.54-179.498-15.062 0-31.175 4.206-47.033 11.965 6.622-1.449 13.158-2.188 19.524-2.188 53.029 0 119.074 52.32 141.61 128.03 18.472 18.927 26.941 43.709 29.243 69.287 3.865-9.209 6.338-18.36 6.196-27.596z" fill="#685d68" fill-rule="evenodd"/></g><g><path clip-rule="evenodd" d="m470.306 453.757h-90.343-245.339-97.164-8.241c-10.032 0-18.245 8.242-18.245 18.274v14.153c0 10.032 8.213 18.245 18.245 18.245h453.563c10.032 0 18.245-8.213 18.245-18.245v-14.153c0-10.032-8.213-18.274-18.245-18.274z" fill="#e7a561" fill-rule="evenodd"/></g><g><path clip-rule="evenodd" d="m501.026 486.184v-14.153c0-10.032-8.213-18.274-18.245-18.274h-12.476-19.268-9.634c10.032 0 18.245 8.242 18.245 18.274v14.153c0 10.032-8.213 18.245-18.245 18.245h41.378c10.032 0 18.245-8.213 18.245-18.245z" fill="#e28424" fill-rule="evenodd"/></g><g><path clip-rule="evenodd" d="m345.093 156.717v-41.009c-32.341-15.972-59.765-22.451-86.762-22.451-27.026 0-54.422 6.48-86.791 22.451l-.966.512v40.498l94.123 6.764z" fill="#918291" fill-rule="evenodd"/></g><g><path clip-rule="evenodd" d="m345.093 125.739c-32.341-16-59.765-22.48-86.762-22.48-27.026 0-54.564 6.224-86.791 22.48l-.966.483v21.286l.966-.483c32.369-16 59.765-22.48 86.791-22.48 18.842 0 37.996 2.87 58.685 10.515 4.547 1.677 5.769 3.012 5.769 7.446v11.68 2.529h22.309v-9.691-21.285z" fill="#685d68" fill-rule="evenodd"/></g><g><path clip-rule="evenodd" d="m345.093 185.875v-29.158h-174.52v30.977c0 4.263.54 8.668 1.591 13.158.568 2.387 1.279 4.831 2.103 7.247-.682 14.863 162.981 15.744 166.96 0 .853-2.444 1.563-4.888 2.131-7.304 1.081-4.519 1.735-9.634 1.735-14.92z" fill="#fed1a3" fill-rule="evenodd"/></g><g><path clip-rule="evenodd" d="m341.228 208.099c.853-2.444 1.563-4.888 2.131-7.304 1.08-4.519 1.734-9.634 1.734-14.92v-29.158h-22.309v26.629c0 5.286-.682 10.373-1.762 14.92-1.051 4.49-2.529 8.782-4.348 12.988 8.185-.427 16.426-1.478 24.554-3.155z" fill="#f5a96c" fill-rule="evenodd"/></g><g><path clip-rule="evenodd" d="m303.317 258.06c17.648-13.243 31.573-31.745 37.911-49.961-22.252 4.576-45.157 4.462-65.789 0-4.945-1.052-15.573-6.65-16.966-12.874-.057-.171-.256-.142-.284 0-1.393 6.224-12.05 11.822-16.966 12.874-20.632 4.462-44.703 4.576-66.954 0 6.224 18.16 19.666 36.604 37.001 49.848 7.957 6.053 16.71 10.998 25.946 14.352 7.247 2.615 13.726 4.092 20.092 4.405 6.366-.313 12.817-1.79 20.064-4.405 9.178-3.326 17.96-8.242 25.945-14.239z" fill="#918291" fill-rule="evenodd"/></g><g><path clip-rule="evenodd" d="m303.317 258.06c17.506-13.13 31.346-31.432 37.768-49.507.028-.171.085-.313.142-.455-8.128 1.677-16.369 2.728-24.554 3.155-.796 1.847-1.648 3.666-2.586 5.485-6.423 12.561-16.142 24.725-27.85 34.615-1.705 1.449-3.467 2.842-5.257 4.178-7.986 5.997-16.739 10.913-25.918 14.238-5.03 1.819-9.691 3.069-14.181 3.78 5.797 1.847 11.14 2.899 16.426 3.155 6.366-.313 12.817-1.79 20.064-4.405 9.179-3.326 17.961-8.242 25.946-14.239z" fill="#685d68" fill-rule="evenodd"/></g><g><path d="m206.473 187.73 16.426 3.581c.544.119 1.086.175 1.621.175 3.482 0 6.617-2.418 7.389-5.96.89-4.086-1.699-8.12-5.784-9.01l-16.426-3.581c-4.091-.89-8.119 1.7-9.01 5.784-.891 4.087 1.698 8.121 5.784 9.011z"/><path d="m292.142 191.487c.533 0 1.077-.057 1.62-.175l16.426-3.581c4.086-.89 6.675-4.924 5.784-9.01-.89-4.084-4.921-6.677-9.01-5.784l-16.426 3.581c-4.086.89-6.675 4.924-5.784 9.01.772 3.541 3.907 5.959 7.39 5.959z"/><path d="m482.782 446.186h-6.198l-15.49-82.241c-5.165-27.482-16.816-51.225-33.695-68.66-13.502-13.948-29.544-22.773-46.084-25.547 3.737-7.787 8.043-15.417 12.299-22.954 11.386-20.163 22.141-39.209 21.827-59.836-.774-48.949-19.665-96.232-53.195-133.14-30.61-33.693-69.458-53.808-103.916-53.808-34.053 0-72.553 19.739-102.99 52.802-2.831 3.077-2.633 7.866.443 10.698 3.074 2.831 7.865 2.634 10.698-.442 27.619-30.004 61.955-47.916 91.849-47.916 59.987 0 132.921 69.423 141.208 158.202-10.074-24.156-27.32-42.64-51.089-54.391-32.082-15.872-60.718-23.265-90.12-23.265-29.393 0-58.037 7.392-90.145 23.264-24.34 12.031-41.464 30.787-51.217 55.991 2.539-30.594 12.796-60.364 29.996-86.763 2.283-3.504 1.293-8.194-2.211-10.476-3.503-2.282-8.193-1.294-10.477 2.21-21.048 32.306-32.478 69.319-33.055 107.033-.324 20.26 8.113 39.196 17.045 59.244 3.41 7.654 6.863 15.405 9.845 23.333-38.555 5.845-71.918 43.749-81.466 94.42l-15.464 82.242h-1.962c-14.235 0-25.816 11.594-25.816 25.845v14.153c0 14.235 11.581 25.816 25.816 25.816h453.564c14.235 0 25.816-11.581 25.816-25.816v-14.154c0-14.25-11.581-25.844-25.816-25.844zm-36.57-79.441 14.963 79.441h-73.578l10.539-120.902c.432-5.127-1.304-10.1-4.89-14-3.788-4.121-9.148-6.484-14.705-6.484h-7.971c.641-7.025 2.32-13.877 4.673-20.592 33.029 3.203 62.394 36.908 70.969 82.537zm-97.731-156.473c.875-2.565 1.636-5.14 2.241-7.716 1.27-5.311 1.942-11.079 1.942-16.681v-47.07c23.964 15.909 37.822 40.974 41.28 74.688-3.664 8.396-8.521 17.003-13.515 25.846-10.941 19.374-23.204 41.104-25.048 65.46h-44.491v-43.032c17.192-13.721 30.986-32.233 37.549-51.369.012-.042.029-.083.042-.126zm-73.68 54.905c-6.605 2.383-12.177 3.641-17.494 3.945-5.339-.306-10.92-1.563-17.519-3.944-21.957-7.933-42.12-26.426-53.147-47.407 7.137.867 14.35 1.309 21.514 1.309 11.879 0 23.624-1.193 34.651-3.577 3.193-.683 10.087-3.38 15.519-7.898 5.434 4.524 12.331 7.217 15.513 7.894 17.54 3.793 36.246 4.555 54.81 2.306-11.263 20.727-31.916 39.448-53.847 47.372zm20.945 6.893v32.729h-76.906v-32.799c5.124 2.964 10.417 5.474 15.806 7.421 8.211 2.962 15.293 4.502 22.29 4.845.123.006.247.009.371.009s.248-.003.371-.009c6.975-.342 14.048-1.882 22.265-4.846 5.389-1.948 10.681-4.43 15.803-7.35zm-117.602-141.107c28.618-13.709 54.19-20.132 80.186-20.132 25.709 0 50.988 6.274 79.191 19.666v18.649h-159.377zm0 33.324h159.377v21.588c0 4.434-.528 8.984-1.533 13.187-.192.815-.403 1.631-.63 2.447-19.664 3.476-39.736 3.21-58.345-.815-3.862-.822-10.436-5.045-11.153-7.121-.059-.261-.131-.519-.217-.772-1.117-3.303-4.312-5.465-7.79-5.249-3.413.21-6.288 2.661-7.048 5.985-.762 2.13-7.318 6.336-11.185 7.163-18.383 3.975-39.809 4.24-59.476.806-.216-.792-.423-1.585-.609-2.379-.924-3.945-1.392-7.791-1.392-11.432v-23.408zm-55.137 54.229c2.706-35.977 16.137-62.48 39.995-78.996v48.174c0 4.802.602 9.81 1.792 14.893.603 2.564 1.355 5.124 2.217 7.674.018.059.04.116.059.174 6.484 19.058 19.917 37.428 36.627 51.067v43.297h-52.016c-1.418-23.989-11.019-45.547-19.584-64.771-3.262-7.322-6.443-14.481-9.09-21.512zm-61.482 148.23c4.548-24.134 15.236-45.77 30.096-60.922 12.303-12.545 26.778-20.08 41.289-21.634 1.821 6.702 3.111 13.558 3.596 20.609h-.461c-5.547 0-10.896 2.358-14.675 6.47-3.587 3.902-5.324 8.879-4.892 13.998l9.928 120.919h-79.819zm431.931 119.438c0 5.886-4.789 10.674-10.674 10.674h-453.564c-5.885 0-10.674-4.789-10.674-10.674v-14.154c0-5.901 4.789-10.703 10.674-10.703h210.583c4.181 0 7.571-3.39 7.571-7.571s-3.39-7.571-7.571-7.571h-98.203l-10.031-122.175c-.094-1.106.465-1.967.95-2.495.906-.986 2.225-1.575 3.527-1.575h75.224 92.049 75.224c1.293 0 2.655.609 3.557 1.589.484.527 1.042 1.384.951 2.459l-10.651 122.196h-98.977c-4.181 0-7.571 3.39-7.571 7.571s3.39 7.571 7.571 7.571h196.843c.011 0 .022.001.033.001.01 0 .021-.001.031-.001h12.453c5.885 0 10.674 4.801 10.674 10.703v14.155z"/><path d="m296.935 383.078c0-18.545-17.777-33.632-39.627-33.632s-39.627 15.087-39.627 33.632c0 18.529 17.777 33.603 39.627 33.603s39.627-15.074 39.627-33.603zm-39.628 18.461c-13.273 0-24.485-8.454-24.485-18.461 0-10.023 11.213-18.49 24.485-18.49 13.273 0 24.485 8.467 24.485 18.49 0 10.007-11.212 18.461-24.485 18.461z"/></g></g></svg>